<svg width="56" height="58" viewBox="0 0 56 58" fill="none" xmlns="http://www.w3.org/2000/svg">
<path d="M0.0964354 19.0526C0.27063 9.08742 7.92634 0.747326 17.8804 0.247046C24.7267 -0.0970399 31.0366 -0.0822946 38.0062 0.295052C47.6235 0.815742 55.2146 8.63858 55.5917 18.2625C55.873 25.443 55.8632 31.9547 55.5749 39.1364C55.1893 48.7409 47.6514 56.5831 38.0541 57.119C31.0694 57.5089 24.7182 57.515 17.774 57.1459C7.86656 56.6193 0.232993 48.3317 0.0721844 38.4116C-0.0307719 32.0603 -0.0243854 25.9644 0.0964354 19.0526Z" fill="#00B1DF"/>
<path d="M38.2785 18.2362C38.7919 17.7179 39.4897 17.424 40.2192 17.4186C40.9488 17.4132 41.6508 17.6969 42.1719 18.2075C42.6929 18.7182 42.9907 19.4143 43 20.1438C43.0093 20.8733 42.7295 21.5769 42.2217 22.1007L27.5283 40.4694C27.2758 40.7412 26.9712 40.9593 26.6326 41.1107C26.2941 41.2622 25.9284 41.3438 25.5576 41.3508C25.1867 41.3578 24.8183 41.29 24.4742 41.1515C24.1301 41.0129 23.8175 40.8064 23.555 40.5444L13.8131 30.8062C13.2954 30.2883 13.0047 29.5859 13.0049 28.8536C13.0051 28.1213 13.2961 27.4191 13.8141 26.9014C14.332 26.3837 15.0344 26.093 15.7667 26.0931C16.499 26.0933 17.2012 26.3844 17.7189 26.9023L25.4236 34.6089L38.2054 18.3224C38.2286 18.2928 38.2536 18.2646 38.2803 18.2381L38.2785 18.2362Z" fill="white"/>
</svg>
