<svg width="62" height="62" viewBox="0 0 62 62" fill="none" xmlns="http://www.w3.org/2000/svg">
<circle cx="31" cy="31" r="31" fill="#00B1DF"/>
<path d="M41.6069 20.3931C38.7737 17.56 35.0069 16 31 16C26.9931 16 23.2263 17.56 20.3931 20.3931C17.56 23.2263 16 26.9931 16 31C16 35.0069 17.56 38.7737 20.3931 41.6069C23.2263 44.44 26.9931 46 31 46C35.0069 46 38.7737 44.44 41.6069 41.6069C44.44 38.7737 46 35.0069 46 31C46 26.9931 44.44 23.2263 41.6069 20.3931ZM42.25 31C42.2525 33.336 41.5241 35.6143 40.1669 37.5156L24.4844 21.8331C26.3857 20.4759 28.664 19.7475 31 19.75C37.2025 19.75 42.25 24.7975 42.25 31ZM19.75 31C19.7475 28.664 20.4759 26.3857 21.8331 24.4844L37.5156 40.1669C35.6143 41.5241 33.336 42.2525 31 42.25C24.7975 42.25 19.75 37.2025 19.75 31Z" fill="white"/>
</svg>
