<svg width="62" height="62" viewBox="0 0 62 62" fill="none" xmlns="http://www.w3.org/2000/svg">
<circle cx="31" cy="31" r="31" fill="#00B1DF"/>
<path d="M44.9059 40.3827L40.9121 24.4069C40.7043 23.5762 40.013 23.0003 39.2239 23.0003H35.9289C36.1242 22.4507 36.2505 21.8672 36.2505 21.2503C36.2505 18.3508 33.9 16.0003 31.0005 16.0003C28.101 16.0003 25.7505 18.3508 25.7505 21.2503C25.7505 21.8672 25.8763 22.4507 26.0721 23.0003H22.7771C21.988 23.0003 21.2962 23.5767 21.0889 24.4069L17.094 40.3827C16.6385 42.2044 17.8957 43.9998 19.6266 43.9998H42.3739C44.1042 43.9998 45.3614 42.2044 44.9059 40.3827ZM31 22.9998C30.0353 22.9998 29.25 22.2144 29.25 21.2498C29.25 20.2851 30.0353 19.4998 31 19.4998C31.9646 19.4998 32.75 20.2851 32.75 21.2498C32.75 22.2144 31.9646 22.9998 31 22.9998Z" fill="white"/>
</svg>
