<svg width="62" height="62" viewBox="0 0 62 62" fill="none" xmlns="http://www.w3.org/2000/svg">
<circle cx="31" cy="31" r="31" fill="#00B1DF"/>
<path d="M31 17.875C23.752 17.875 17.875 23.752 17.875 31C17.875 38.248 23.752 44.125 31 44.125C38.248 44.125 44.125 38.248 44.125 31C44.125 23.752 38.248 17.875 31 17.875ZM36.1709 35.0342L35.333 36.1768C35.3148 36.2016 35.2918 36.2227 35.2654 36.2386C35.2391 36.2546 35.2098 36.2652 35.1793 36.2699C35.1488 36.2745 35.1177 36.273 35.0878 36.2656C35.0578 36.2582 35.0297 36.2449 35.0049 36.2266L30.1592 32.6934C30.129 32.6717 30.1045 32.6431 30.0876 32.6099C30.0708 32.5768 30.0622 32.5401 30.0625 32.5029V24.4375C30.0625 24.3086 30.168 24.2031 30.2969 24.2031H31.7061C31.835 24.2031 31.9404 24.3086 31.9404 24.4375V31.6885L36.1182 34.709C36.2236 34.7822 36.2471 34.9287 36.1709 35.0342Z" fill="white"/>
</svg>
