<svg width="62" height="62" viewBox="0 0 62 62" fill="none" xmlns="http://www.w3.org/2000/svg">
<circle cx="31" cy="31" r="31" fill="#00B1DF"/>
<g clip-path="url(#clip0)">
<path d="M31.9998 17.4V25.05C31.9998 25.7263 32.2685 26.3749 32.7467 26.8531C33.2249 27.3313 33.8735 27.6 34.5498 27.6H42.1998V42.05C42.1998 42.7263 41.9311 43.3749 41.4529 43.8531C40.9747 44.3313 40.3261 44.6 39.6498 44.6H31.5629C32.8326 43.0625 33.5775 41.1593 33.6888 39.1683C33.8001 37.1774 33.272 35.2031 32.1816 33.5336C31.0912 31.8641 29.4956 30.5869 27.6279 29.8886C25.7601 29.1903 23.718 29.1073 21.7998 29.6519V19.95C21.7998 19.2737 22.0685 18.6251 22.5467 18.1469C23.0249 17.6687 23.6735 17.4 24.3498 17.4H31.9998Z" fill="white"/>
<path d="M33.7002 17.825V25.05C33.7002 25.2754 33.7897 25.4916 33.9492 25.651C34.1086 25.8104 34.3248 25.9 34.5502 25.9H41.7752L33.7002 17.825Z" fill="white"/>
<path d="M29.759 44.0594C28.3243 45.494 26.3785 46.3 24.3496 46.3C22.3207 46.3 20.3749 45.494 18.9402 44.0594C17.5056 42.6247 16.6996 40.6789 16.6996 38.65C16.6996 36.6211 17.5056 34.6753 18.9402 33.2406C20.3749 31.806 22.3207 31 24.3496 31C26.3785 31 28.3243 31.806 29.759 33.2406C31.1936 34.6753 31.9996 36.6211 31.9996 38.65C31.9996 40.6789 31.1936 42.6247 29.759 44.0594ZM27.3548 36.8469C27.5142 36.6875 27.6038 36.4713 27.6038 36.2458C27.6038 36.0204 27.5142 35.8042 27.3548 35.6448C27.1954 35.4854 26.9792 35.3958 26.7538 35.3958C26.5283 35.3958 26.3121 35.4854 26.1527 35.6448L24.3496 37.4479L22.5465 35.6448C22.3871 35.4854 22.1709 35.3958 21.9454 35.3958C21.72 35.3958 21.5038 35.4854 21.3444 35.6448C21.185 35.8042 21.0954 36.0204 21.0954 36.2458C21.0954 36.4713 21.185 36.6875 21.3444 36.8469L23.1475 38.65L21.3444 40.4531C21.185 40.6125 21.0954 40.8287 21.0954 41.0542C21.0954 41.2796 21.185 41.4958 21.3444 41.6552C21.5038 41.8146 21.72 41.9042 21.9454 41.9042C22.1709 41.9042 22.3871 41.8146 22.5465 41.6552L24.3496 39.8521L26.1527 41.6552C26.3121 41.8146 26.5283 41.9042 26.7538 41.9042C26.9792 41.9042 27.1954 41.8146 27.3548 41.6552C27.5142 41.4958 27.6038 41.2796 27.6038 41.0542C27.6038 40.8287 27.5142 40.6125 27.3548 40.4531L25.5517 38.65L27.3548 36.8469Z" fill="white"/>
</g>
<defs>
<clipPath id="clip0">
<rect width="34" height="34" fill="white" transform="translate(15 14)"/>
</clipPath>
</defs>
</svg>
